<svg width="409" height="69" viewBox="0 0 409 69" fill="none" xmlns="http://www.w3.org/2000/svg">
<path d="M204.883 27.593H206.755V38.5085H204.883V27.593Z" fill="#323946"/>
<path d="M219.239 27.593V38.5085H217.333L212.198 30.5103V38.5085H210.325V27.593H212.247L217.382 35.561V27.593H219.239Z" fill="#323946"/>
<path d="M224.077 35.512C224.138 35.8023 224.264 36.0661 224.446 36.2998C224.629 36.5335 224.876 36.7182 225.188 36.8539C225.497 36.9896 225.866 37.0574 226.3 37.0574C226.962 37.0574 227.457 36.9029 227.78 36.5976C228.108 36.2923 228.271 35.9304 228.271 35.512C228.271 35.169 228.169 34.8826 227.963 34.6564C227.758 34.4265 227.472 34.2343 227.107 34.0722C226.738 33.9101 226.319 33.7594 225.847 33.6124C225.417 33.488 225.002 33.3561 224.602 33.2166C224.203 33.0771 223.845 32.9 223.525 32.6851C223.205 32.4741 222.95 32.1951 222.76 31.8597C222.57 31.5242 222.482 31.0983 222.494 30.5895C222.494 29.9223 222.65 29.3607 222.966 28.8971C223.282 28.4335 223.723 28.083 224.29 27.8455C224.857 27.608 225.508 27.4874 226.243 27.4874C226.863 27.4874 227.423 27.5741 227.921 27.7437C228.42 27.9171 228.842 28.1659 229.189 28.4938C229.535 28.8217 229.79 29.225 229.961 29.7037L228.245 30.2653C228.18 30.0354 228.055 29.8319 227.868 29.6509C227.682 29.47 227.446 29.3268 227.168 29.2212C226.89 29.1157 226.589 29.0592 226.262 29.0479C225.904 29.0366 225.588 29.0893 225.31 29.2024C225.032 29.3155 224.808 29.4813 224.64 29.6924C224.473 29.9072 224.389 30.1522 224.389 30.4349C224.389 30.7553 224.484 31.0078 224.671 31.1888C224.857 31.3697 225.109 31.5205 225.417 31.6411C225.729 31.7617 226.072 31.8823 226.448 32.0067C226.89 32.1311 227.328 32.2743 227.761 32.4364C228.195 32.5984 228.599 32.7982 228.957 33.0432C229.318 33.2882 229.611 33.5973 229.832 33.9704C230.053 34.3436 230.163 34.811 230.163 35.3726C230.163 35.9756 230.022 36.5222 229.748 37.0084C229.47 37.4984 229.048 37.8866 228.481 38.1768C227.914 38.4671 227.21 38.6141 226.372 38.6141C225.691 38.6141 225.067 38.5123 224.507 38.3088C223.944 38.1052 223.479 37.815 223.106 37.4343C222.733 37.0536 222.49 36.6051 222.372 36.0849L224.088 35.5083L224.077 35.512Z" fill="#323946"/>
<path d="M232.687 27.593H241.346V29.1346H237.958V38.5048H236.086V29.1346H232.687V27.593Z" fill="#323946"/>
<path d="M244.322 27.593H246.195V38.5085H244.322V27.593Z" fill="#323946"/>
<path d="M249.205 27.593H257.864V29.1346H254.481V38.5048H252.608V29.1346H249.205V27.593Z" fill="#323946"/>
<path d="M260.791 27.593H262.649V34.5471C262.649 35.0974 262.763 35.561 262.988 35.9342C263.212 36.3073 263.52 36.5863 263.909 36.7672C264.297 36.9481 264.738 37.0386 265.229 37.0386C265.72 37.0386 266.196 36.9481 266.584 36.7672C266.973 36.5863 267.281 36.3073 267.506 35.9342C267.73 35.561 267.844 35.0974 267.844 34.5471V27.593H269.702V34.5019C269.702 35.1992 269.58 35.8023 269.332 36.3186C269.089 36.8312 268.75 37.2609 268.324 37.6039C267.898 37.9469 267.422 38.2032 266.893 38.3691C266.364 38.5349 265.804 38.6178 265.214 38.6178C264.438 38.6178 263.715 38.4671 263.041 38.1655C262.367 37.864 261.827 37.4079 261.412 36.8011C260.997 36.1943 260.791 35.4253 260.791 34.5019V27.593Z" fill="#323946"/>
<path d="M272.667 27.593H281.326V29.1346H277.942V38.5048H276.069V29.1346H272.667V27.593Z" fill="#323946"/>
<path d="M289.026 38.6141C288.249 38.6141 287.518 38.4784 286.837 38.207C286.156 37.9356 285.558 37.5549 285.048 37.0612C284.538 36.5674 284.138 35.9794 283.853 35.301C283.564 34.6187 283.419 33.8687 283.419 33.047C283.419 32.2253 283.564 31.4903 283.853 30.8081C284.142 30.1296 284.538 29.5379 285.048 29.0366C285.554 28.539 286.152 28.1546 286.837 27.8832C287.522 27.6118 288.249 27.4761 289.026 27.4761C289.802 27.4761 290.529 27.6118 291.207 27.8832C291.884 28.1546 292.478 28.539 292.984 29.0366C293.494 29.5341 293.894 30.1259 294.179 30.8081C294.468 31.4903 294.613 32.2328 294.613 33.047C294.613 33.8611 294.468 34.6187 294.179 35.301C293.89 35.9794 293.494 36.5674 292.984 37.0612C292.478 37.5549 291.884 37.9356 291.207 38.207C290.529 38.4784 289.802 38.6141 289.026 38.6141ZM289.026 37.0386C289.737 37.0386 290.373 36.8765 290.929 36.5486C291.484 36.2206 291.922 35.757 292.238 35.1615C292.554 34.5622 292.71 33.8574 292.71 33.047C292.71 32.2366 292.554 31.5205 292.238 30.9249C291.922 30.3294 291.488 29.8733 290.929 29.5454C290.373 29.2175 289.737 29.0554 289.026 29.0554C288.314 29.0554 287.674 29.2175 287.119 29.5454C286.563 29.8733 286.125 30.3332 285.802 30.9249C285.482 31.5167 285.322 32.2253 285.322 33.047C285.322 33.8687 285.482 34.5622 285.802 35.1615C286.122 35.757 286.559 36.2206 287.119 36.5486C287.674 36.8765 288.31 37.0386 289.026 37.0386Z" fill="#323946"/>
<path d="M303.261 27.593H305.133V32.2102H305.731L309.807 27.593H312.137L307.413 32.9716L312.217 38.5085H309.792L305.716 33.7518H305.133V38.5085H303.261V27.593Z" fill="#323946"/>
<path d="M319.113 27.593C319.996 27.593 320.723 27.74 321.294 28.0377C321.869 28.3355 322.295 28.735 322.577 29.2401C322.859 29.7452 323 30.2917 323 30.8835C323 31.2792 322.931 31.6675 322.794 32.0519C322.657 32.4364 322.436 32.7944 322.132 33.1186C321.827 33.4465 321.428 33.7066 320.929 33.8988C320.43 34.091 319.825 34.189 319.11 34.189H316.67V38.5085H314.797V27.593H319.113ZM321.115 30.8797C321.115 30.3407 320.952 29.911 320.624 29.6019C320.301 29.2891 319.795 29.1346 319.113 29.1346H316.674V32.6437H319.113C319.574 32.6437 319.951 32.5721 320.24 32.4326C320.529 32.2931 320.746 32.0896 320.895 31.8258C321.039 31.5619 321.115 31.2453 321.115 30.8835V30.8797ZM320.232 33.5784L323.239 38.5048H321.131L318.234 33.5784H320.236H320.232Z" fill="#323946"/>
<path d="M326.235 27.593H328.107V38.5085H326.235V27.593Z" fill="#323946"/>
<path d="M339.206 29.1346H333.554V32.2064H337.79V33.748H333.554V36.9594H339.206V38.5048H331.678V27.5892H339.206V29.1346Z" fill="#323946"/>
<path d="M341.901 27.593H350.56V29.1346H347.176V38.5048H345.304V29.1346H341.901V27.593Z" fill="#323946"/>
<path d="M361.061 29.1346H355.409V32.2064H359.642V33.748H355.409V36.9594H361.061V38.5048H353.533V27.5892H361.061V29.1346Z" fill="#323946"/>
<path d="M373.926 27.593C375.11 27.593 376.138 27.8153 377.002 28.2639C377.869 28.7124 378.539 29.3494 379.019 30.1749C379.495 31.0003 379.734 31.9765 379.734 33.0997C379.734 34.223 379.495 35.1728 379.019 35.9832C378.539 36.7936 377.869 37.4192 377.002 37.8527C376.138 38.2899 375.11 38.5085 373.926 38.5085H369.991V27.593H373.926ZM373.926 36.9632C375.186 36.9632 376.153 36.6239 376.83 35.9417C377.508 35.2633 377.846 34.3134 377.846 33.096C377.846 31.8785 377.508 30.9023 376.83 30.1937C376.153 29.4851 375.186 29.1346 373.926 29.1346H371.863V36.9632H373.926Z" fill="#323946"/>
<path d="M390.27 29.1346H384.618V32.2064H388.854V33.748H384.618V36.9594H390.27V38.5048H382.741V27.5892H390.27V29.1346Z" fill="#323946"/>
<path d="M204.883 45.5004H206.755V56.416H204.883V45.5004Z" fill="#323946"/>
<path d="M219.239 45.5004V56.416H217.333L212.198 48.4177V56.416H210.325V45.5004H212.247L217.382 53.4685V45.5004H219.239Z" fill="#323946"/>
<path d="M231.145 48.9002C230.757 48.2142 230.281 47.7204 229.714 47.4189C229.147 47.1174 228.542 46.9666 227.902 46.9666C227.21 46.9666 226.578 47.1362 226.003 47.4717C225.432 47.8109 224.979 48.2783 224.648 48.8738C224.317 49.4731 224.149 50.1666 224.149 50.9544C224.149 51.7422 224.313 52.4395 224.64 53.035C224.964 53.6343 225.409 54.1017 225.969 54.4371C226.532 54.7764 227.156 54.946 227.849 54.946C228.344 54.946 228.804 54.8631 229.234 54.6972C229.665 54.5314 230.045 54.2977 230.369 54.0037C230.692 53.7059 230.951 53.3667 231.141 52.9822V51.8929H227.978V50.3815H233.018V53.0953C232.767 53.7398 232.39 54.3241 231.891 54.8442C231.393 55.3644 230.799 55.7752 230.11 56.0767C229.425 56.3783 228.664 56.529 227.834 56.529C227.057 56.529 226.33 56.3934 225.653 56.122C224.975 55.8506 224.382 55.4699 223.875 54.9761C223.369 54.4824 222.969 53.8944 222.68 53.2159C222.391 52.5337 222.246 51.7836 222.246 50.9619C222.246 50.1403 222.391 49.4053 222.68 48.723C222.969 48.0446 223.369 47.4528 223.875 46.9515C224.385 46.454 224.979 46.0695 225.653 45.7982C226.33 45.5268 227.057 45.3911 227.834 45.3911C228.538 45.3911 229.215 45.5042 229.866 45.7265C230.517 45.9489 231.099 46.2806 231.613 46.7178C232.127 47.1551 232.523 47.6903 232.793 48.3235L231.141 48.9002H231.145Z" fill="#323946"/>
<path d="M243.664 47.042H238.011V50.1139H242.244V51.6555H238.011V54.8668H243.664V56.4122H236.135V45.4966H243.664V47.042Z" fill="#323946"/>
<path d="M255.832 45.5004V56.416H253.925L248.794 48.4177V56.416H246.922V45.5004H248.84L253.975 53.4685V45.5004H255.832Z" fill="#323946"/>
<path d="M259.41 45.5004H261.282V56.416H259.41V45.5004Z" fill="#323946"/>
<path d="M272.385 47.042H266.733V50.1139H270.965V51.6555H266.733V54.8668H272.385V56.4122H264.856V45.4966H272.385V47.042Z" fill="#323946"/>
<path d="M279.956 45.5004C280.839 45.5004 281.566 45.6474 282.136 45.9452C282.707 46.2429 283.134 46.6425 283.419 47.1475C283.701 47.6526 283.845 48.1991 283.845 48.7909C283.845 49.1867 283.777 49.5749 283.64 49.9593C283.503 50.3438 283.282 50.7019 282.978 51.026C282.673 51.3539 282.273 51.614 281.775 51.8062C281.276 51.9985 280.671 52.0965 279.956 52.0965H277.516V56.416H275.643V45.5004H279.959H279.956ZM281.954 48.7909C281.954 48.2519 281.79 47.8222 281.467 47.5131C281.139 47.2003 280.637 47.0458 279.956 47.0458H277.516V50.5549H279.956C280.416 50.5549 280.793 50.4833 281.082 50.3438C281.371 50.2043 281.588 50.0008 281.737 49.737C281.885 49.4731 281.958 49.1565 281.958 48.7947L281.954 48.7909ZM281.074 51.4859L284.081 56.4122H281.973L279.076 51.4859H281.074Z" fill="#323946"/>
<path d="M289.657 41.4598V43.0353L286.148 44.7202V43.3633L289.657 41.4598ZM287.073 45.5004H288.946V56.416H287.073V45.5004Z" fill="#323946"/>
<path d="M297.293 47.042H296.726L293.418 56.4122H291.496L295.401 45.4966H298.583L302.503 56.4122H300.585L297.293 47.042ZM293.639 52.2209H300.064V53.7474H293.639V52.2209Z" fill="#323946"/>
<path d="M317.918 45.5004H320.012L315.886 52.4847V56.4122H314.028V52.4998L309.918 45.5004H311.996L314.957 50.8036L317.918 45.5004Z" fill="#323946"/>
<path d="M327.902 50.9582C327.902 50.1365 328.047 49.3864 328.336 48.7042C328.625 48.0257 329.021 47.4378 329.531 46.944C330.037 46.4502 330.631 46.0695 331.308 45.7982C331.986 45.5268 332.713 45.3911 333.489 45.3911C334.57 45.3911 335.548 45.6474 336.424 46.1562C337.299 46.6651 337.969 47.4001 338.43 48.3537L336.903 48.8663C336.664 48.4102 336.352 48.0408 335.975 47.7581C335.598 47.4754 335.198 47.2757 334.78 47.1513C334.361 47.0269 333.946 46.9628 333.535 46.9628C332.819 46.9628 332.18 47.1249 331.617 47.4528C331.05 47.7808 330.608 48.2444 330.285 48.8399C329.965 49.4392 329.805 50.1403 329.805 50.9544C329.805 51.7686 329.965 52.4545 330.285 53.0501C330.604 53.6494 331.05 54.113 331.617 54.4447C332.184 54.7764 332.823 54.9422 333.535 54.9422C333.957 54.9422 334.384 54.8781 334.818 54.7462C335.252 54.6181 335.666 54.3881 336.062 54.0602C336.458 53.7323 336.785 53.2951 337.048 52.741L338.559 53.2235C338.076 54.3467 337.387 55.1759 336.496 55.7111C335.602 56.2464 334.601 56.514 333.489 56.514C332.713 56.514 331.986 56.3783 331.308 56.1069C330.631 55.8355 330.037 55.4511 329.531 54.9535C329.021 54.456 328.621 53.8642 328.336 53.182C328.047 52.4998 327.902 51.7535 327.902 50.9431V50.9582Z" fill="#323946"/>
<path d="M341.726 45.5004H343.599V56.416H341.726V45.5004Z" fill="#323946"/>
<path d="M354.701 47.042H349.049V50.1139H353.281V51.6555H349.049V54.8668H354.701V56.4122H347.173V45.4966H354.701V47.042Z" fill="#323946"/>
<path d="M366.873 45.5004V56.416H364.966L359.832 48.4177V56.416H357.959V45.5004H359.881L365.016 53.4685V45.5004H366.873Z" fill="#323946"/>
<path d="M369.88 50.9582C369.88 50.1365 370.025 49.3864 370.314 48.7042C370.603 48.0257 371.003 47.4378 371.509 46.944C372.019 46.4502 372.613 46.0695 373.287 45.7982C373.964 45.5268 374.691 45.3911 375.468 45.3911C376.549 45.3911 377.527 45.6474 378.402 46.1562C379.278 46.6651 379.948 47.4001 380.412 48.3537L378.886 48.8663C378.642 48.4102 378.334 48.0408 377.957 47.7581C377.58 47.4754 377.18 47.2757 376.762 47.1513C376.339 47.0269 375.928 46.9628 375.517 46.9628C374.802 46.9628 374.162 47.1249 373.595 47.4528C373.028 47.7808 372.586 48.2444 372.267 48.8399C371.947 49.4392 371.787 50.1403 371.787 50.9544C371.787 51.7686 371.947 52.4545 372.267 53.0501C372.586 53.6494 373.028 54.113 373.595 54.4447C374.162 54.7764 374.802 54.9422 375.517 54.9422C375.936 54.9422 376.362 54.8781 376.8 54.7462C377.234 54.6181 377.649 54.3881 378.041 54.0602C378.436 53.7323 378.764 53.2951 379.026 52.741L380.537 53.2235C380.054 54.3467 379.369 55.1759 378.474 55.7111C377.58 56.2464 376.579 56.514 375.468 56.514C374.691 56.514 373.964 56.3783 373.287 56.1069C372.609 55.8355 372.015 55.4511 371.509 54.9535C371.003 54.456 370.603 53.8642 370.314 53.182C370.025 52.4998 369.88 51.7535 369.88 50.9431V50.9582Z" fill="#323946"/>
<path d="M383.704 45.5004H385.577V56.416H383.704V45.5004Z" fill="#323946"/>
<path d="M393.924 47.042H393.357L390.049 56.4122H388.127L392.032 45.4966H395.214L399.134 56.4122H397.216L393.924 47.042ZM390.27 52.2209H396.695V53.7474H390.27V52.2209Z" fill="#323946"/>
<path d="M402.914 53.4195C402.975 53.7097 403.1 53.9735 403.283 54.2072C403.466 54.4409 403.713 54.6256 404.025 54.7613C404.334 54.897 404.703 54.9648 405.137 54.9648C405.799 54.9648 406.294 54.8103 406.617 54.505C406.945 54.1997 407.108 53.8378 407.108 53.4195C407.108 53.0765 407.006 52.79 406.8 52.5639C406.595 52.3339 406.309 52.1417 405.944 51.9796C405.574 51.8176 405.156 51.6668 404.684 51.5198C404.254 51.3954 403.839 51.2635 403.439 51.124C403.04 50.9846 402.682 50.8074 402.362 50.5926C402.042 50.3815 401.787 50.1026 401.597 49.7671C401.41 49.4279 401.319 49.0057 401.331 48.4969C401.331 47.8297 401.487 47.2681 401.803 46.8045C402.118 46.3409 402.56 45.9904 403.127 45.7529C403.694 45.5155 404.345 45.3949 405.08 45.3949C405.7 45.3949 406.26 45.4815 406.758 45.6512C407.257 45.8245 407.679 46.0733 408.026 46.4012C408.372 46.7291 408.627 47.1324 408.798 47.6111L407.082 48.1727C407.017 47.9428 406.891 47.7393 406.705 47.5584C406.518 47.3774 406.282 47.2342 406.005 47.1287C405.727 47.0231 405.426 46.9666 405.099 46.9553C404.741 46.944 404.425 46.9968 404.147 47.1098C403.869 47.2229 403.645 47.3888 403.477 47.5998C403.31 47.8109 403.226 48.0597 403.226 48.3424C403.226 48.6627 403.321 48.9153 403.508 49.0962C403.694 49.2771 403.945 49.4279 404.254 49.5485C404.566 49.6691 404.908 49.7897 405.285 49.9141C405.727 50.0385 406.164 50.1817 406.598 50.3438C407.032 50.5059 407.436 50.7056 407.793 50.9506C408.155 51.1956 408.448 51.5047 408.669 51.8779C408.89 52.251 409 52.7184 409 53.28C409 53.8831 408.859 54.4296 408.585 54.9158C408.307 55.4058 407.885 55.7941 407.318 56.0843C406.751 56.3745 406.046 56.5215 405.209 56.5215C404.528 56.5215 403.904 56.4197 403.344 56.2162C402.781 56.0127 402.316 55.7224 401.943 55.3418C401.57 54.9611 401.327 54.5125 401.209 53.9924L402.925 53.4157L402.914 53.4195Z" fill="#323946"/>
<path d="M187.313 24.3929H185.981V61.4667H187.313V24.3929Z" fill="#323946"/>
<path d="M30.5217 25.6857L25.4861 28.5654L11.9552 20.831L5.03557 24.7849L25.4861 36.4769L37.4413 29.6434V0.5L30.5217 4.45765V25.6857Z" fill="#323946"/>
<path d="M25.4861 38.2786L0 52.8503L6.91962 56.808L25.4861 46.1902L30.5217 49.0698V68.5L37.4413 64.5424V45.1159L25.4861 38.2786Z" fill="#323946"/>
<path d="M67.9592 52.8503L45.9329 40.2574V34.4981L59.4639 26.7637V18.8522L39.0171 30.5442V44.2151L61.0396 56.808L67.9592 52.8503Z" fill="#323946"/>
<path d="M96.399 28.8255L89.2243 40.0464H82.8528V18.8899H77.0674V56.7929H82.8528V45.5192H89.1748L96.399 56.7929H103.341L94.1077 42.7828L103.341 28.8255H96.399Z" fill="#323946"/>
<path d="M119.282 28.1546C115.087 28.1546 111.251 29.6396 108.484 32.3384C105.72 35.0333 104.198 38.7611 104.198 42.8318C104.198 51.1693 110.68 57.46 119.282 57.46C125.158 57.46 130.217 54.1658 132.489 48.8625L132.893 47.9202H126.734L126.536 48.2594C125.075 50.7584 122.41 52.1945 119.228 52.1945C114.532 52.1945 110.874 49.2093 110.086 44.8483H133.098L133.167 44.2452C133.216 43.7892 133.273 43.0316 133.273 42.6773C133.273 34.532 127.126 28.1546 119.282 28.1546ZM110.307 39.9446C111.361 36.0096 114.851 33.4239 119.228 33.4239C123.054 33.4239 126.373 36.1792 127.248 39.9446H110.307Z" fill="#323946"/>
<path d="M159.764 28.8255L151.501 51.3728H148.612L140.402 28.8255H134.476L144.692 56.7929H149.548L145.754 67.0866H151.68L165.744 28.8255H159.764Z" fill="#323946"/>
</svg>
